<?xml version="1.0" standalone="no"?>
<!DOCTYPE svg PUBLIC "-//W3C//DTD SVG 20010904//EN"
 "http://www.w3.org/TR/2001/REC-SVG-20010904/DTD/svg10.dtd">
<svg version="1.0" xmlns="http://www.w3.org/2000/svg"
 width="1024.000000pt" height="1024.000000pt" viewBox="0 0 1024.000000 1024.000000"
 preserveAspectRatio="xMidYMid meet">

<g transform="translate(0.000000,1024.000000) scale(0.100000,-0.100000)"
fill="#000000" stroke="none">
<path d="M0 5120 l0 -5120 5120 0 5120 0 0 5120 0 5120 -5120 0 -5120 0 0
-5120z m2878 2759 c203 -22 361 -70 503 -154 35 -21 98 -56 139 -78 81 -43
276 -153 430 -242 19 -11 59 -33 88 -50 29 -16 119 -68 200 -114 81 -46 219
-123 307 -171 215 -117 569 -315 626 -350 26 -16 91 -52 145 -81 55 -29 150
-81 213 -117 287 -161 466 -260 581 -320 69 -36 148 -80 175 -97 47 -31 233
-135 390 -220 39 -21 84 -46 100 -55 17 -10 75 -41 130 -70 55 -29 129 -69
164 -89 35 -20 89 -50 120 -68 31 -17 88 -49 126 -72 39 -22 131 -71 206 -110
74 -38 207 -110 295 -159 87 -49 209 -115 269 -147 61 -32 128 -69 150 -83 22
-14 93 -51 157 -83 255 -127 465 -285 615 -464 103 -123 217 -317 257 -437 51
-153 97 -360 102 -458 22 -401 11 -517 -66 -670 -15 -30 -38 -77 -51 -104 -13
-26 -30 -50 -36 -53 -7 -3 -13 -9 -13 -14 0 -9 -6 -17 -52 -70 -13 -15 -24
-33 -26 -40 -2 -8 -13 -24 -24 -36 -12 -13 -18 -23 -14 -23 4 0 -8 -21 -26
-48 -19 -26 -45 -69 -58 -97 -33 -67 -148 -250 -221 -351 -89 -123 -281 -294
-399 -354 -56 -29 -251 -110 -264 -110 -5 0 -17 -6 -25 -14 -17 -14 -196 -41
-341 -52 -52 -3 -143 0 -234 10 -173 19 -252 46 -451 154 -66 35 -167 90 -225
122 -93 50 -133 73 -205 117 -135 82 -273 166 -430 263 -104 64 -280 170 -390
235 -110 65 -212 125 -227 134 -14 9 -67 50 -118 91 -238 194 -400 492 -400
734 0 74 30 197 71 293 32 75 301 483 431 653 18 23 260 379 283 416 9 14 15
14 64 -6 97 -38 661 -364 661 -382 0 -6 -488 -824 -539 -904 -13 -19 -11 -26
16 -65 30 -43 54 -59 320 -215 18 -11 76 -46 130 -80 54 -33 130 -78 168 -99
39 -20 86 -47 105 -60 19 -12 107 -64 195 -115 88 -52 192 -113 230 -136 39
-24 115 -64 170 -91 l100 -48 130 0 c129 0 130 0 205 36 121 59 238 188 360
394 29 50 65 106 80 125 15 19 52 76 82 125 65 106 80 179 74 340 -8 176 -27
276 -71 370 -23 48 -36 60 -113 108 -48 30 -107 65 -131 77 -43 21 -232 129
-358 203 -34 21 -63 37 -66 37 -14 0 -342 188 -466 267 -29 19 -115 69 -190
110 -75 42 -158 89 -186 104 -27 16 -86 47 -129 70 -44 23 -96 52 -117 65 -20
12 -66 38 -100 57 -151 80 -295 160 -318 176 -14 10 -91 53 -171 96 -231 124
-406 223 -592 336 -51 31 -124 72 -163 92 -74 37 -342 188 -584 329 -79 45
-184 106 -235 133 -50 28 -137 77 -194 110 -227 132 -311 180 -390 227 -46 28
-109 63 -140 80 -65 35 -204 117 -277 163 -27 17 -79 45 -115 62 -36 17 -114
63 -174 101 -133 88 -240 130 -355 143 -90 9 -114 8 -301 -17 -149 -20 -186
-30 -236 -65 -59 -40 -173 -166 -246 -270 -94 -133 -164 -230 -193 -266 -25
-31 -152 -211 -188 -265 -9 -15 -29 -65 -43 -110 -23 -73 -26 -94 -21 -174 3
-50 10 -100 16 -110 6 -11 20 -45 32 -77 34 -94 43 -102 321 -275 58 -37 146
-89 195 -115 48 -26 115 -65 148 -86 152 -97 193 -123 240 -147 28 -15 79 -46
115 -69 65 -43 359 -215 367 -215 2 0 19 -11 36 -24 18 -14 102 -64 187 -113
86 -49 200 -119 254 -156 54 -37 105 -67 112 -67 7 0 28 21 45 48 18 26 75
103 126 171 52 67 105 139 118 160 13 20 38 54 54 76 17 22 53 72 81 110 92
129 129 179 220 305 50 69 112 155 138 192 26 37 53 68 61 68 7 0 60 -27 118
-60 57 -33 106 -60 108 -60 3 0 34 -20 71 -45 36 -25 69 -45 74 -45 5 0 47
-21 92 -47 46 -27 101 -58 123 -69 21 -12 41 -26 42 -31 3 -9 -162 -262 -247
-378 -20 -27 -49 -70 -64 -95 -31 -51 -63 -101 -192 -293 -50 -74 -131 -212
-179 -306 -130 -250 -232 -355 -430 -446 -372 -170 -753 -130 -1110 115 -64
44 -226 148 -376 240 -76 47 -198 124 -271 171 -73 47 -221 141 -328 209 -107
67 -226 144 -265 171 -38 26 -74 48 -79 49 -4 0 -67 39 -140 88 -73 48 -139
92 -148 97 -58 37 -183 143 -220 187 -209 247 -304 494 -315 819 -11 321 46
508 230 757 35 48 70 98 77 110 6 13 41 61 76 107 35 46 64 88 64 93 0 6 3 12
8 14 4 2 34 41 66 87 188 270 325 414 500 525 70 45 274 149 331 169 22 7 74
26 116 41 42 14 118 33 170 40 52 8 141 22 199 31 58 8 110 17 115 19 20 8
158 6 253 -5z m759 -1295 c-3 -3 -12 -4 -19 -1 -8 3 -5 6 6 6 11 1 17 -2 13
-5z m53 -14 c0 -5 -2 -10 -4 -10 -3 0 -8 5 -11 10 -3 6 -1 10 4 10 6 0 11 -4
11 -10z m-110 -103 c7 -46 11 -90 8 -98 -6 -18 -45 141 -40 164 8 37 19 13 32
-66z m-1560 -66 c5 -11 6 -22 2 -25 -10 -6 -43 30 -35 38 11 11 22 6 33 -13z
m0 -55 c0 -24 -23 -36 -43 -22 -28 21 -25 24 36 35 4 0 7 -5 7 -13z m-43 -82
c-3 -3 -12 -4 -19 -1 -8 3 -5 6 6 6 11 1 17 -2 13 -5z m-17 -28 c0 -17 -22
-56 -31 -56 -8 0 -9 4 0 13 6 8 8 17 5 20 -8 7 4 27 17 27 5 0 9 -2 9 -4z
m4678 -1396 c28 -27 28 -34 -3 -48 -21 -10 -24 -16 -19 -38 5 -21 3 -25 -11
-22 -33 6 -40 32 -21 82 10 25 21 46 25 46 4 0 17 -9 29 -20z m492 -453 c0 -5
7 -7 15 -3 8 3 15 1 15 -5 0 -5 6 -9 13 -7 16 4 80 -39 96 -64 9 -15 8 -18 -9
-18 -21 0 -67 25 -83 45 -5 5 -6 -4 -3 -21 5 -33 -4 -38 -51 -28 -45 9 -88
105 -55 123 17 10 62 -6 62 -22z m773 -579 c22 -17 36 -118 16 -118 -25 0
-124 66 -127 84 -8 37 73 62 111 34z"/>
</g>
</svg>
